<?xml version="1.0" standalone="no"?>
<!DOCTYPE svg PUBLIC "-//W3C//DTD SVG 20010904//EN"
 "http://www.w3.org/TR/2001/REC-SVG-20010904/DTD/svg10.dtd">
<svg version="1.0" xmlns="http://www.w3.org/2000/svg"
 width="500.000000pt" height="500.000000pt" viewBox="0 0 500.000000 500.000000"
 preserveAspectRatio="xMidYMid meet">
<metadata>
Created by potrace 1.14, written by Peter Selinger 2001-2017
</metadata>
<g transform="translate(0.000000,500.000000) scale(0.100000,-0.100000)"
fill="#000000" stroke="none">
<path d="M0 2500 l0 -2500 2500 0 2500 0 0 2500 0 2500 -2500 0 -2500 0 0
-2500z m3124 1911 c15 -28 14 -31 -26 -92 -81 -125 -100 -216 -78 -385 12 -98
43 -192 95 -293 39 -74 59 -186 47 -264 -12 -74 -51 -177 -97 -257 -42 -71
-56 -124 -56 -213 0 -99 18 -150 89 -251 l60 -86 31 56 c74 129 168 189 324
203 96 9 134 22 175 61 34 32 74 24 86 -17 14 -50 -27 -121 -153 -262 -63 -71
-115 -138 -123 -159 -14 -44 -16 -136 -4 -283 l9 -106 36 8 c60 14 138 11 155
-7 19 -19 13 -30 -35 -73 -61 -53 -73 -95 -74 -261 0 -141 -1 -147 -31 -210
-17 -36 -52 -87 -78 -115 -53 -58 -73 -94 -86 -165 -5 -28 -17 -67 -26 -85
-22 -48 -105 -122 -167 -150 -55 -26 -95 -63 -141 -132 -33 -50 -80 -83 -163
-114 -53 -21 -63 -28 -69 -54 -12 -56 -41 -85 -84 -85 -32 0 -40 -4 -47 -26
l-9 -27 -104 84 c-91 72 -109 83 -140 81 -23 -2 -58 9 -100 29 -36 18 -88 35
-116 39 -82 12 -125 47 -168 132 -20 40 -41 91 -46 113 -15 61 -45 102 -97
134 -123 75 -150 120 -163 277 -4 55 -15 114 -23 130 -8 16 -50 65 -92 109
-88 93 -114 133 -93 146 7 5 41 9 76 9 l62 0 -15 24 c-33 50 -38 92 -39 306
-1 261 -7 281 -117 383 -38 35 -69 72 -69 81 0 9 12 22 26 28 53 24 208 -26
335 -109 109 -71 177 -176 204 -315 8 -43 20 -86 27 -97 14 -23 50 -41 82 -41
21 0 25 7 36 66 8 41 11 104 7 163 -5 93 -7 100 -71 232 -71 147 -96 230 -96
326 0 90 24 200 59 263 16 30 40 91 52 135 18 67 21 96 16 180 -3 55 -13 122
-22 150 -8 27 -13 55 -11 62 19 48 128 -43 177 -146 34 -71 58 -183 59 -271 0
-61 70 -293 111 -371 l24 -44 3 45 c5 84 34 195 77 290 71 155 74 197 35 433
-16 96 -1 177 59 302 90 189 179 304 331 426 46 37 129 89 142 89 4 0 14 -13
22 -29z"/>
<path d="M2651 2280 c-1 -19 -10 -71 -21 -115 -24 -97 -35 -236 -23 -290 l9
-39 39 79 c39 79 40 82 40 195 0 98 -3 122 -22 160 l-21 45 -1 -35z"/>
<path d="M3256 1635 c-10 -22 -21 -69 -23 -105 l-4 -65 20 25 c25 31 33 69 29
135 l-4 50 -18 -40z"/>
<path d="M2964 1294 c-17 -22 -36 -49 -42 -61 -14 -25 -44 -164 -38 -170 6 -6
52 75 61 107 4 14 19 47 32 73 13 27 23 58 21 69 -3 18 -7 15 -34 -18z"/>
</g>
</svg>
